<svg width="1365.3333" height="1365.3333" version="1.0" viewBox="0 0 1024 1024">
  <path d="M470.5 211.6c-2.2.2-9.2.9-15.5 1.4-77.3 7.2-156.3 33.1-212.5 69.8-23.2 15.1-48.8 37.8-63.5 56.2-17.8 22.4-31.4 48.9-37.4 73-5.6 22.5-5.5 19.8-4.9 213.3.6 177.9.6 177.9 2.7 180.9 1.2 1.7 3.4 4.1 4.9 5.2 2.8 2.1 2.8 2.1 367.7 2.1s364.9 0 367.7-2.1c1.5-1.1 3.8-3.6 5.1-5.4 2.2-3.4 2.2-3.4 1.9-188.9-.3-185.6-.3-185.6-3-197.7-3.4-15.5-7.5-27.1-14.4-40.8-23.4-46.6-64.6-85.3-121.3-114.1-51.8-26.2-109.5-43.2-172.5-50.6-15.2-1.8-24.5-2.2-59.5-2.4-22.8-.1-43.3-.1-45.5.1zm83.2 28.9c52.6 4.2 99.5 14.7 144.8 32.5 14.2 5.6 50.2 23.8 63 31.9 38.4 24.2 65.9 52.8 82.2 85.6 10.3 20.5 14.7 38.1 14.6 58.5 0 17.1-3 36.6-5.5 35.8-.5-.2-3.1-5.4-5.8-11.6-12.3-28.3-23.7-44.8-46.2-66.8-36.9-36-89.4-64.4-149.8-81-73.7-20.2-141.1-24.4-219.2-13.4-42 5.9-85.9 18.8-125.2 36.7-19.9 9.1-42.2 22.6-58.1 35.3-11.9 9.5-36.8 34.2-44.6 44.3-11.3 14.5-24.8 38.1-30.4 52.9-1 2.7-2.1 4.8-2.6 4.8-1.3 0-3.8-9.4-5.5-20.5-6.4-41 14.2-89.9 54.2-128.5 50.4-48.7 137.2-84.2 230.9-94.5 34.4-3.8 71.9-4.5 103.2-2zm5.8 96.4c81.5 9.3 144.8 31 195.7 67.1 10.9 7.7 33.3 29.1 42.4 40.4 11.1 13.8 22.4 33.4 29.5 51.3 3.1 7.8 7.9 24.5 7.9 27.4 0 3.1-20.6 29.9-22.9 29.9-.5 0-2.4-3.3-4.4-7.3-4.4-8.9-17.8-29.5-26.2-40.2-20.9-26.8-60-54.8-98.4-70.6-35.8-14.7-80.1-25.4-127.1-30.6-21.2-2.3-65.5-2.3-87.5.1-40.2 4.3-73.2 11.3-104.6 22.2-56.2 19.5-98.1 48-127.1 86.5-7.5 9.9-16.5 24.2-21 33.4-1.8 3.6-3.6 6.5-4 6.5-.9 0-13.4-14.9-19.2-22.9-3.9-5.3-3.9-5.3-2.7-11.5 1.9-9.5 7.5-25.5 13-37.1 9.6-20.4 23.5-39 44.2-59.1 50.3-48.8 130.2-78.9 229.9-86.4 14.3-1.1 70.4-.4 82.5.9zM542 432c47.2 3.3 98.9 15.3 134.8 31.3 28.4 12.7 56.9 31.9 73.3 49.4 8.1 8.7 22.5 28.1 28.9 38.9 6.4 10.9 11 19.9 11 21.8 0 2.2-9.2 9.9-23 19.1-12.8 8.5-32.5 19.5-35.1 19.5-.8 0-4-4.6-7.2-10.3-18.9-33.6-42.1-54.5-82.2-74.2-29.8-14.6-52.6-21.2-90-26.1-16.3-2.1-55.4-2.9-70.5-1.5-40.5 4-80.2 15.6-110.5 32.3-37.9 21-59.1 41.8-72.7 71.5-2.3 5.1-4.6 9.3-5.1 9.3-1.6 0-13.5-6.5-26.6-14.5-18.8-11.7-32.5-21.7-32.9-24.3-.6-4.2 13.4-28.7 25.7-44.7 7-9.2 24.5-26.9 35.3-35.5 20.1-16.2 51.5-32.5 81-41.9 52.4-16.8 110.7-23.9 165.8-20.1zm-13 96c41.1 3.1 77.3 12.5 109.2 28.6 21.6 10.9 46 32.6 58.6 52.2 3.6 5.7 9 17 13.8 28.6 3.5 8.8 5.5 10.9 9.4 10.1 4.9-1.1 24.6-9.3 35.9-15 32.4-16.3 68.8-47.5 93-79.8 9.6-12.9 9.6-12.9 9.9 109.4.1 67.2 0 122.4-.2 122.6-.5.5-303.8.4-304.3-.1-.2-.2 6.5-3.7 14.9-7.8 15.4-7.6 27.7-15.5 35.6-23.1 11.7-11.2 23.9-32 28.4-48.2 3.1-11.4 3.2-36.4 0-47.7-7.7-28.1-24.9-50-51.8-66.1-36.4-21.8-87.2-24.4-125.9-6.3-16.2 7.6-24.8 13.5-36.8 25.4-13.5 13.3-22.8 29.3-27.9 48-3.2 11.8-3 33.3.5 46.3 4.8 18.4 14.1 34.5 27.6 48 11.7 11.6 29 22.4 45.6 28.4 2.8 1 5.4 2.2 6 2.7.5.4-27.9.9-63 .9-35.2.1-70.1.2-77.5.3-7.4.1-14.1 0-14.7-.2-1-.3-1.3-15.9-1.3-73.2 0-72.8 0-72.8 3.6-83.2 13.8-40.1 53.1-71.8 110.8-89.2 19-5.8 36.1-8.9 65.6-11.9 7.5-.8 22.1-.7 35 .3zm-358.9 17.7c22.7 35 63.1 70.3 100.9 87.9 5.2 2.5 10.6 5 12 5.7 2.5 1.3 2.5 1.3 2.8 72.6.1 47.3-.1 71.8-.8 72.6-.8.9-14.6 1.3-59.3 1.4-32 .1-58.8-.2-59.4-.7-1-.6-1.3-28.1-1.5-123.5-.2-67.5 0-122.7.3-122.7.4 0 2.6 3 5 6.7zm365.4 58.8c19.3 4 35.8 12.8 49.5 26.5 10.3 10.3 14.7 16.8 18.8 28.2 2.5 6.7 2.7 8.6 2.7 21.8-.1 13.8-.2 14.9-3.2 22.6-3.2 8.5-8.1 16.9-14.1 24.3-9.1 11.2-31.5 24.5-48.7 29-41.1 10.7-86-2.9-108.7-32.8-10.1-13.4-14.8-26.8-14.8-42.7 0-38.1 31.3-69.9 76.9-78 9.7-1.7 30.9-1.2 41.6 1.1z"/>
</svg>